<svg width="160" height="28" viewBox="0 0 160 28" fill="none" xmlns="http://www.w3.org/2000/svg">
<mask id="mask0_3015_1162" style="mask-type:luminance" maskUnits="userSpaceOnUse" x="156" y="0" width="4" height="27">
<path d="M160 0.944031V26.7588H156.93V0.944031H160Z" fill="white"/>
</mask>
<g mask="url(#mask0_3015_1162)">
<path d="M161.664 -0.159607H155.941V27.9307H161.664V-0.159607Z" fill="url(#paint0_linear_3015_1162)"/>
<path opacity="0.1" d="M152.504 -0.371057C152.31 2.55061 164.951 3.2939 164.591 15.478C164.591 15.478 166.901 6.69584 162.836 1.10979C160.149 -2.58375 153.614 -1.22297 152.504 -0.371057Z" fill="white"/>
<path d="M160.435 28.6399L157.221 -2.22919L155.678 8.25108L154.843 27.5821L160.435 28.6399Z" fill="url(#paint1_linear_3015_1162)"/>
<path d="M160.034 29.692L156.032 4.37473L155.323 28.8115L160.034 29.692Z" fill="url(#paint2_linear_3015_1162)"/>
</g>
<mask id="mask1_3015_1162" style="mask-type:luminance" maskUnits="userSpaceOnUse" x="137" y="7" width="18" height="21">
<path d="M151.618 25.5638C150.217 26.6272 148.462 27.1533 146.341 27.1533C144.848 27.1533 143.55 26.9131 142.453 26.4328C141.355 25.9526 140.434 25.2779 139.685 24.4088C138.936 23.5398 138.376 22.5049 138.004 21.2985C137.633 20.0921 137.421 18.7828 137.37 17.3591C137.37 15.9354 137.587 14.6375 138.022 13.454C138.456 12.2762 139.062 11.247 139.846 10.3837C140.629 9.51462 141.555 8.83994 142.63 8.35967C143.705 7.87939 144.877 7.63925 146.152 7.63925C147.816 7.63925 149.194 7.98232 150.292 8.66842C151.389 9.35453 152.27 10.2293 152.933 11.2871C153.596 12.3505 154.054 13.5055 154.305 14.7576C154.557 16.0098 154.66 17.2047 154.614 18.3368H140.623C140.6 19.1544 140.697 19.932 140.915 20.6696C141.132 21.4071 141.481 22.0532 141.961 22.6192C142.441 23.1853 143.059 23.637 143.802 23.9743C144.551 24.3116 145.432 24.4832 146.444 24.4832C147.747 24.4832 148.811 24.1801 149.645 23.5798C150.474 22.9794 151.023 22.0589 151.292 20.8297H154.328C153.916 22.928 153.013 24.506 151.618 25.5638ZM150.875 13.5626C150.595 12.9108 150.223 12.3505 149.754 11.8817C149.285 11.4128 148.731 11.0355 148.09 10.761C147.45 10.4866 146.747 10.3437 145.975 10.3437C145.203 10.3437 144.46 10.4809 143.825 10.761C143.185 11.0412 142.636 11.4186 142.178 11.8988C141.721 12.3791 141.361 12.9394 141.092 13.5798C140.829 14.2202 140.669 14.9006 140.623 15.621H151.361C151.315 14.9006 151.149 14.2087 150.875 13.5626Z" fill="white"/>
</mask>
<g mask="url(#mask1_3015_1162)">
<path d="M155.363 15.2721H139.502V19H155.363V15.2721Z" fill="url(#paint3_linear_3015_1162)"/>
<path d="M143.167 27.885L153.585 27.725L154.946 20.4065H151.069L149.937 21.4414H141.984L143.167 27.885Z" fill="url(#paint4_linear_3015_1162)"/>
<path d="M150.76 27.805C150.76 27.805 134.969 23.1052 144.042 10.458C147.158 6.11836 143.854 6.71869 140.995 9.0343C136.558 12.6306 136.284 17.2962 136.284 17.2962L137.85 23.9571L142.83 27.8679L150.76 27.805Z" fill="url(#paint5_linear_3015_1162)"/>
<path opacity="0.15" d="M145.512 22.8079C145.512 22.8079 141.269 20.8983 141.286 21.087C141.509 23.86 146.306 27.5592 150.806 21.9617C151.092 21.6072 149.194 21.1327 149.194 21.1327C149.194 21.1327 146.901 21.1327 145.512 22.8079Z" fill="white"/>
<path d="M149.302 12.7965C149.302 12.7965 134.34 7.14751 139.565 26.673C139.565 26.673 132.115 13.0938 139.943 8.70269C147.873 4.25443 154.122 8.88566 154.122 8.88566L149.297 12.8022L149.302 12.7965Z" fill="url(#paint6_linear_3015_1162)"/>
<path d="M149.8 12.4248C149.274 11.8302 147.787 11.1041 147.021 10.8811C145.06 10.2979 141.303 10.4809 138.833 10.9154C136.815 11.2699 139.863 7.67927 142.224 7.25046C145.386 6.67298 150.64 7.44485 150.64 7.44485L155.506 11.0526L155.277 18.8228C155.277 18.8228 152.001 17.502 150.817 14.5975C150.594 14.0429 150.194 12.8823 149.794 12.4363L149.8 12.4248Z" fill="url(#paint7_linear_3015_1162)"/>
<path opacity="0.1" d="M154.608 15.5638C153.087 11.3556 148.976 5.59805 137.181 9.32017C136.661 9.48598 139.788 7.2447 140.154 7.17609C146.535 5.97541 153.962 6.79302 155.66 15.1349L154.608 15.5638Z" fill="white"/>
<path d="M143.167 19.2342C141.967 19.4458 140.64 20.3034 140.526 18.571C140.412 16.8443 140.709 14.8431 141.006 14.7231C141.309 14.603 142.842 14.8145 143.859 14.8145C145.535 14.8145 144.431 17.3703 150.2 18.8683C152.127 19.3714 143.167 19.2285 143.167 19.2285V19.2342Z" fill="url(#paint8_linear_3015_1162)"/>
</g>
<mask id="mask2_3015_1162" style="mask-type:luminance" maskUnits="userSpaceOnUse" x="120" y="8" width="18" height="19">
<path d="M127.279 26.753L120.337 8.06235H123.774L129.017 23.6427H129.091L134.191 8.06235H137.41L130.578 26.753H127.29H127.279Z" fill="white"/>
</mask>
<g mask="url(#mask2_3015_1162)">
<path d="M123.979 7.2561C123.979 7.2561 127.867 18.1309 129.205 22.1446L131.286 27.6621L126.975 27.6392L119.708 7.78211L123.979 7.2561Z" fill="url(#paint9_linear_3015_1162)"/>
<path d="M138.674 7.01608L136.924 11.796L133.185 22.099L131.269 27.1476L127.176 27.119L128.685 22.9509L132.533 7.46205" fill="url(#paint10_linear_3015_1162)"/>
<path d="M132.636 8.61701C132.636 8.61701 136.73 14.203 135.472 18.091C134.22 21.9732 138.668 7.01608 138.668 7.01608L133.362 7.10757L132.636 8.62271V8.61701Z" fill="url(#paint11_linear_3015_1162)"/>
<path d="M131.029 27.5591L138.982 7.63919L135.226 9.05715L130.452 27.5763L131.029 27.5591Z" fill="url(#paint12_linear_3015_1162)"/>
<path opacity="0.2" d="M132.379 5.99254V8.14235H133.796L135.289 9.12004L137.536 8.14235L138.153 7.82789L139.611 5.94681C139.611 5.94681 136.347 5.96968 132.384 5.98683L132.379 5.99254Z" fill="white"/>
<path d="M127.404 27.1817L123.408 9.48018L123.036 7.61054L125.083 7.49048L129.154 22.459L128.988 27.1474L127.404 27.1817Z" fill="url(#paint13_linear_3015_1162)"/>
<path opacity="0.2" d="M120.137 7.46765L120.126 8.04513L123.408 9.48022L124.111 7.71923L123.774 7.50196L120.137 7.46765Z" fill="white"/>
</g>
<mask id="mask3_3015_1162" style="mask-type:luminance" maskUnits="userSpaceOnUse" x="103" y="7" width="18" height="21">
<path d="M120.863 26.6845C120.332 26.9989 119.6 27.1533 118.656 27.1533C117.862 27.1533 117.227 26.9303 116.758 26.4844C116.289 26.0384 116.055 25.3066 116.055 24.2945C115.209 25.3066 114.231 26.0384 113.11 26.4844C111.99 26.9303 110.778 27.1533 109.48 27.1533C108.633 27.1533 107.833 27.0561 107.078 26.8617C106.318 26.6673 105.66 26.37 105.106 25.9584C104.551 25.5467 104.111 25.015 103.785 24.3517C103.459 23.6885 103.299 22.888 103.299 21.9503C103.299 20.8926 103.482 20.0235 103.842 19.3489C104.202 18.6742 104.677 18.1253 105.272 17.7022C105.86 17.2791 106.535 16.9589 107.296 16.7417C108.056 16.5244 108.834 16.3414 109.628 16.1985C110.469 16.0327 111.275 15.9012 112.03 15.8211C112.79 15.7354 113.459 15.6153 114.037 15.4609C114.614 15.3066 115.071 15.0779 115.409 14.7748C115.746 14.4718 115.918 14.0315 115.918 13.4541C115.918 12.7794 115.792 12.2362 115.54 11.8246C115.289 11.4129 114.963 11.1042 114.563 10.8869C114.162 10.6696 113.716 10.5267 113.225 10.4524C112.733 10.378 112.241 10.3437 111.761 10.3437C110.457 10.3437 109.377 10.5896 108.508 11.087C107.639 11.5787 107.17 12.5164 107.095 13.8886H104.025C104.071 12.7337 104.317 11.7559 104.746 10.9612C105.18 10.1665 105.758 9.5204 106.484 9.02869C107.204 8.53698 108.033 8.17676 108.959 7.95949C109.886 7.74223 110.88 7.63361 111.944 7.63361C112.79 7.63361 113.625 7.69649 114.454 7.81655C115.283 7.93662 116.038 8.18248 116.712 8.55412C117.387 8.92576 117.93 9.45177 118.336 10.1207C118.748 10.7954 118.948 11.6702 118.948 12.7508V22.3449C118.948 23.0653 118.988 23.597 119.074 23.9343C119.159 24.2717 119.44 24.4375 119.926 24.4375C120.189 24.4375 120.503 24.3917 120.863 24.2945V26.6788V26.6845ZM115.872 17.1019C115.489 17.3877 114.98 17.5993 114.351 17.7308C113.722 17.8623 113.07 17.9709 112.378 18.0567C111.692 18.1425 111.001 18.2397 110.297 18.3426C109.6 18.4512 108.971 18.6227 108.416 18.8629C107.862 19.103 107.41 19.4461 107.061 19.8863C106.712 20.3323 106.535 20.9383 106.535 21.7045C106.535 22.2076 106.638 22.6365 106.844 22.9795C107.05 23.3283 107.313 23.6084 107.639 23.8257C107.964 24.043 108.342 24.1973 108.776 24.2945C109.211 24.3917 109.668 24.4375 110.149 24.4375C111.161 24.4375 112.03 24.3003 112.75 24.0258C113.47 23.7514 114.065 23.4026 114.523 22.9852C114.98 22.5678 115.317 22.1104 115.535 21.6187C115.752 21.127 115.86 20.6639 115.86 20.2351V17.1076L115.872 17.1019Z" fill="white"/>
</mask>
<g mask="url(#mask3_3015_1162)">
<path d="M119.405 9.67474C119.405 9.67474 116.181 14.0544 112.664 14.7462C109.148 15.4381 106.844 15.8383 106.844 15.8383L108.513 19.3546C108.513 19.3546 111.281 18.9486 112.607 18.4912C113.934 18.0281 118.256 17.4563 119.64 15.9583L119.411 9.67474H119.405Z" fill="url(#paint14_linear_3015_1162)"/>
<path d="M121.887 23.5569C113.528 22.928 105.054 18.4169 113.648 6.90172C113.865 6.61013 108.439 6.78165 107.953 7.05609C103.505 9.55466 100.858 15.6038 102.813 23.2711C104.197 28.6913 113.676 28.2053 121.544 27.3019C121.852 27.2676 122.041 23.5684 121.887 23.5569Z" fill="url(#paint15_linear_3015_1162)"/>
<path d="M120.154 19.9893C120.154 19.9893 109.657 32.7452 102.864 14.5176C102.796 14.3347 102.213 20.3553 102.23 20.5668C102.458 22.9853 102.458 24.7235 106.089 27.0791C112.31 31.11 118.873 22.648 120.148 19.9893H120.154Z" fill="url(#paint16_linear_3015_1162)"/>
<path d="M106.501 27.2447C106.501 27.2447 106.192 24.7404 112.899 23.3282C112.899 23.3282 115.895 20.4466 115.677 12.1218C115.677 12.1218 122.864 18.3768 121.481 27.016C121.481 27.016 114.545 29.7204 106.501 27.2447Z" fill="url(#paint17_linear_3015_1162)"/>
<path d="M104.071 11.5614C106.907 10.6866 111.052 9.58307 114.391 11.2812C116.575 12.3961 118.771 16.9873 119.577 23.0936C119.605 23.2995 119.726 11.9844 119.685 11.8587C119.285 10.7037 118.954 9.21716 117.787 8.45672C113.939 5.92957 109.039 7.01589 105.866 8.41097C105.7 8.4853 103.876 11.6128 104.065 11.5556L104.071 11.5614Z" fill="url(#paint18_linear_3015_1162)"/>
<path opacity="0.21" d="M103.545 10.3781C103.545 10.3781 118.176 0.378103 121.652 20.5382C121.652 20.5382 123.11 10.2237 116.975 6.433C110.84 2.64798 104.648 8.38268 103.545 10.3724V10.3781Z" fill="white"/>
<path opacity="0.2" d="M103.299 23.0595C103.945 19.8577 105.9 16.4043 111.183 15.6038C111.715 15.5238 112.024 15.0435 112.024 15.0435C112.024 15.0435 107.25 15.3751 105.403 16.5872C99.3766 20.5438 103.259 23.2367 103.293 23.0595H103.299Z" fill="white"/>
<path opacity="0.15" d="M115.717 17.6221C115.717 17.6221 116.392 27.5363 106.958 21.5958C106.958 21.5958 107.187 26.1241 112.573 24.8834C116.581 23.9571 116.066 18.8399 115.717 17.6221Z" fill="white"/>
</g>
<mask id="mask4_3015_1162" style="mask-type:luminance" maskUnits="userSpaceOnUse" x="93" y="7" width="11" height="20">
<path d="M96.3636 8.06237V11.2756H96.4379C97.1869 9.75477 97.9302 9.25734 99.0165 8.53692C100.103 7.81651 101.647 7.58782 103.31 7.63356V10.8868C102.081 10.8868 101.035 11.0584 100.166 11.3957C99.2967 11.733 98.5991 12.2247 98.0674 12.8765C97.5357 13.5283 97.1526 14.3174 96.9125 15.2436C96.6723 16.1699 96.5522 17.239 96.5522 18.4455V26.7588H93.4819V8.06808H96.375L96.3636 8.06237Z" fill="white"/>
</mask>
<g mask="url(#mask4_3015_1162)">
<path d="M104.151 6.24396H91.5151V27.8106H104.151V6.24396Z" fill="url(#paint19_linear_3015_1162)"/>
<path d="M97.1585 8.77697C97.1585 8.77697 92.0127 15.6552 97.29 28.9656L92.4987 28.5654L92.0527 7.35329L98.0447 6.86731L97.1585 8.77697Z" fill="url(#paint20_linear_3015_1162)"/>
<path d="M100.12 7.51328C100.12 7.51328 91.2008 9.74312 92.6645 28.3823L92.0527 5.009L100.12 7.519V7.51328Z" fill="url(#paint21_linear_3015_1162)"/>
<path d="M104.849 8.97703C104.849 8.97703 96.7925 8.84554 96.8268 16.833L102.453 12.4705L104.22 11.3041L104.854 8.97703H104.849Z" fill="#EE4023"/>
</g>
<mask id="mask5_3015_1162" style="mask-type:luminance" maskUnits="userSpaceOnUse" x="81" y="2" width="10" height="25">
<path d="M90.9662 8.06236V10.7725H87.2441V22.3791C87.2441 22.7393 87.2727 23.0309 87.3356 23.2482C87.3927 23.4655 87.5128 23.6313 87.6786 23.757C87.8444 23.8771 88.0846 23.9572 88.3819 23.9915C88.6849 24.0258 89.0737 24.0429 89.5597 24.0429H90.9719V26.753H88.622C87.8273 26.753 87.1469 26.7016 86.5808 26.593C86.0148 26.4843 85.5574 26.2842 85.2086 25.9983C84.8599 25.7067 84.5969 25.3008 84.4311 24.7691C84.2595 24.2373 84.1795 23.5398 84.1795 22.6707V10.7782H81.0005V8.06807H84.1795V2.46487H87.2498V8.06807H90.9719L90.9662 8.06236Z" fill="white"/>
</mask>
<g mask="url(#mask5_3015_1162)">
<path d="M91.9839 1.38995H80.3601V27.4563H91.9839V1.38995Z" fill="url(#paint22_linear_3015_1162)"/>
<path d="M89.0738 1.38446C89.0738 1.38446 85.1516 -0.427986 84.2654 21.0529L83.4763 11.2358L80.446 11.2015L80.5432 7.7424L83.2133 7.54228L83.3791 1.77898L89.0795 1.38446H89.0738Z" fill="url(#paint23_linear_3015_1162)"/>
<path d="M87.4328 1.56156L80.7775 13.0939L80.646 6.10702L81.7038 1.22995L87.4328 1.56156Z" fill="url(#paint24_linear_3015_1162)"/>
<path d="M83.4704 11.2356C83.4704 11.2356 86.3807 24.283 91.7552 23.6999C97.1297 23.1167 91.6065 27.6621 91.6065 27.6621L85.2143 27.8565L83.4704 11.2413V11.2356Z" fill="url(#paint25_linear_3015_1162)"/>
<path d="M83.8135 16.5531C84.0136 16.7189 82.8587 26.7018 91.5208 26.6217C98.4733 26.5588 83.6134 26.8618 83.6134 26.8618L83.8135 16.5474V16.5531Z" fill="url(#paint26_linear_3015_1162)"/>
<path opacity="0.1" d="M79.3195 2.25906C79.1251 5.18073 91.7666 5.92401 91.4064 18.1081C91.4064 18.1081 93.7163 9.32597 89.6512 3.73992C86.9639 0.0463835 80.4287 1.40715 79.3195 2.25906Z" fill="white"/>
</g>
<path d="M26.924 22.2763C27.6901 23.0196 28.7936 23.3912 30.2344 23.3912C31.2636 23.3912 32.1555 23.1339 32.8988 22.6193C33.6421 22.1048 34.0995 21.5559 34.2653 20.9841H38.765C38.0446 23.214 36.9411 24.8092 35.4546 25.7697C33.968 26.7303 32.167 27.2105 30.0572 27.2105C28.5935 27.2105 27.2727 26.9761 26.1007 26.5073C24.9228 26.0384 23.928 25.3752 23.1161 24.5118C22.2985 23.6485 21.6695 22.6193 21.2293 21.4186C20.7833 20.218 20.5661 18.8972 20.5661 17.4621C20.5661 16.027 20.7948 14.7749 21.2522 13.5742C21.7096 12.3735 22.3557 11.3386 23.1961 10.4581C24.0366 9.58332 25.0372 8.89148 26.2036 8.38834C27.3699 7.8852 28.6564 7.63364 30.0743 7.63364C31.6581 7.63364 33.036 7.93665 34.2139 8.54843C35.3917 9.16021 36.3522 9.98355 37.1127 11.0127C37.8674 12.0419 38.4163 13.2197 38.7479 14.5404C39.0852 15.8612 39.2053 17.2391 39.1081 18.6799H25.6833C25.7576 20.338 26.175 21.533 26.9411 22.2763H26.924ZM32.6987 12.4878C32.0869 11.8189 31.155 11.4815 29.9085 11.4815C29.0909 11.4815 28.4163 11.6188 27.8731 11.8932C27.3356 12.1676 26.9011 12.5107 26.5752 12.9166C26.2493 13.3226 26.0206 13.7571 25.8891 14.2145C25.7576 14.6719 25.6776 15.0779 25.6547 15.4381H33.968C33.7279 14.1402 33.3048 13.1568 32.693 12.4878H32.6987Z" fill="#21409A"/>
<path d="M51.6352 8.13083V11.5499H47.8902V20.7666C47.8902 21.63 48.0332 22.2074 48.3248 22.4933C48.6107 22.7792 49.1881 22.9279 50.0515 22.9279C50.3374 22.9279 50.6175 22.9164 50.8805 22.8936C51.1435 22.8707 51.3951 22.8307 51.6352 22.7849V26.7415C51.2007 26.8158 50.7204 26.8615 50.1944 26.8844C49.6684 26.9073 49.1481 26.9187 48.645 26.9187C47.8559 26.9187 47.1012 26.8672 46.398 26.7586C45.689 26.65 45.0658 26.4384 44.5283 26.1297C43.9909 25.8152 43.5621 25.375 43.2533 24.7975C42.9388 24.22 42.7845 23.4653 42.7845 22.5333V11.5556H39.6913V8.13653H42.7845V2.55621H47.896V8.13653H51.641L51.6352 8.13083Z" fill="#21409A"/>
<path d="M59.5026 8.13086V26.7358H54.3911V8.13086H59.5026Z" fill="#21409A"/>
<path d="M67.793 1.04126V14.8263L74.2367 8.13102H80.2802L73.2647 14.9692L81.0749 26.7359H74.8828L69.7713 18.4226L67.793 20.3323V26.7359H62.6815V1.04126H67.793Z" fill="#21409A"/>
<path d="M13.3848 1.12128V9.67473C12.0183 8.66272 10.3716 8.07382 8.5992 8.07382C3.85364 8.07382 0 12.3105 0 17.5364C0 22.7622 3.84792 26.9989 8.5992 26.9989C10.3716 26.9989 12.0183 26.41 13.3848 25.398V26.7416H18.3705V1.127H13.3848V1.12128ZM8.68496 22.968C6.29503 22.968 4.35678 20.5381 4.35678 17.5364C4.35678 14.5347 6.29503 12.1047 8.68496 12.1047C11.0749 12.1047 13.0132 14.5347 13.0132 17.5364C13.0132 20.5381 11.0749 22.968 8.68496 22.968Z" fill="#21409A"/>
<path d="M59.6284 3.46542C59.6284 4.94627 58.4277 6.14123 56.9526 6.14123C55.4774 6.14123 54.2768 4.94055 54.2768 3.46542C54.2768 1.99029 55.4774 0.789612 56.9526 0.789612C58.4277 0.789612 59.6284 1.99029 59.6284 3.46542Z" fill="url(#paint27_radial_3015_1162)"/>
<defs>
<linearGradient id="paint0_linear_3015_1162" x1="155.941" y1="13.8884" x2="161.664" y2="13.8884" gradientUnits="userSpaceOnUse">
<stop stop-color="#F79720"/>
<stop offset="1" stop-color="#FCB918"/>
</linearGradient>
<linearGradient id="paint1_linear_3015_1162" x1="154.843" y1="13.2025" x2="160.435" y2="13.2025" gradientUnits="userSpaceOnUse">
<stop stop-color="#E2791E"/>
<stop offset="1" stop-color="#F89A1C"/>
</linearGradient>
<linearGradient id="paint2_linear_3015_1162" x1="157.627" y1="29.9207" x2="158.159" y2="13.0826" gradientUnits="userSpaceOnUse">
<stop stop-color="#F89A1F"/>
<stop offset="1" stop-color="#DD711F"/>
</linearGradient>
<linearGradient id="paint3_linear_3015_1162" x1="143.568" y1="18.1995" x2="157.536" y2="14.3516" gradientUnits="userSpaceOnUse">
<stop stop-color="#F37721"/>
<stop offset="0.83" stop-color="#F79820"/>
</linearGradient>
<linearGradient id="paint4_linear_3015_1162" x1="141.984" y1="24.1458" x2="154.946" y2="24.1458" gradientUnits="userSpaceOnUse">
<stop stop-color="#EE3825"/>
<stop offset="0.74" stop-color="#F79720"/>
</linearGradient>
<linearGradient id="paint5_linear_3015_1162" x1="141.124" y1="14.1323" x2="146.151" y2="32.8427" gradientUnits="userSpaceOnUse">
<stop offset="0.35" stop-color="#F16623"/>
<stop offset="0.88" stop-color="#F79720"/>
</linearGradient>
<linearGradient id="paint6_linear_3015_1162" x1="147.393" y1="5.90109" x2="139.079" y2="26.4728" gradientUnits="userSpaceOnUse">
<stop offset="0.35" stop-color="#F16623"/>
<stop offset="0.88" stop-color="#F79720"/>
</linearGradient>
<linearGradient id="paint7_linear_3015_1162" x1="138.176" y1="12.9223" x2="155.506" y2="12.9223" gradientUnits="userSpaceOnUse">
<stop stop-color="#F37721"/>
<stop offset="0.83" stop-color="#F79820"/>
</linearGradient>
<linearGradient id="paint8_linear_3015_1162" x1="142.55" y1="17.1359" x2="153.516" y2="16.8957" gradientUnits="userSpaceOnUse">
<stop offset="0.35" stop-color="#F16623"/>
<stop offset="0.88" stop-color="#F79720"/>
</linearGradient>
<linearGradient id="paint9_linear_3015_1162" x1="131.98" y1="17.8666" x2="118.934" y2="16.8519" gradientUnits="userSpaceOnUse">
<stop offset="0.35" stop-color="#ED2524"/>
<stop offset="0.75" stop-color="#F27123"/>
</linearGradient>
<linearGradient id="paint10_linear_3015_1162" x1="129.914" y1="27.1076" x2="134.98" y2="9.41745" gradientUnits="userSpaceOnUse">
<stop stop-color="#F05524"/>
<stop offset="1" stop-color="#F27123"/>
</linearGradient>
<linearGradient id="paint11_linear_3015_1162" x1="138.965" y1="12.5681" x2="132.845" y2="13.0003" gradientUnits="userSpaceOnUse">
<stop stop-color="#E91D25"/>
<stop offset="1" stop-color="#F27123"/>
</linearGradient>
<linearGradient id="paint12_linear_3015_1162" x1="129.24" y1="27.0331" x2="138.062" y2="7.22752" gradientUnits="userSpaceOnUse">
<stop offset="0.21" stop-color="#F05924"/>
<stop offset="0.75" stop-color="#F79720"/>
</linearGradient>
<linearGradient id="paint13_linear_3015_1162" x1="122.922" y1="19.0914" x2="129.497" y2="15.4493" gradientUnits="userSpaceOnUse">
<stop offset="0.21" stop-color="#F05725"/>
<stop offset="0.78" stop-color="#F5891F"/>
</linearGradient>
<linearGradient id="paint14_linear_3015_1162" x1="117.947" y1="17.9252" x2="110.509" y2="11.5558" gradientUnits="userSpaceOnUse">
<stop stop-color="#F27123"/>
<stop offset="1" stop-color="#F05624"/>
</linearGradient>
<linearGradient id="paint15_linear_3015_1162" x1="102.155" y1="17.3077" x2="121.938" y2="17.3077" gradientUnits="userSpaceOnUse">
<stop stop-color="#F27123"/>
<stop offset="0.74" stop-color="#ED3725"/>
</linearGradient>
<linearGradient id="paint16_linear_3015_1162" x1="111.202" y1="9.49306" x2="120.31" y2="23.1039" gradientUnits="userSpaceOnUse">
<stop offset="0.05" stop-color="#EE4424"/>
<stop offset="0.85" stop-color="#F27123"/>
</linearGradient>
<linearGradient id="paint17_linear_3015_1162" x1="109.387" y1="19.0895" x2="122.623" y2="23.9095" gradientUnits="userSpaceOnUse">
<stop stop-color="#EF4F24"/>
<stop offset="1" stop-color="#F27123"/>
</linearGradient>
<linearGradient id="paint18_linear_3015_1162" x1="104.442" y1="10.4693" x2="121.87" y2="16.8158" gradientUnits="userSpaceOnUse">
<stop stop-color="#F27123"/>
<stop offset="0.83" stop-color="#F28A21"/>
</linearGradient>
<linearGradient id="paint19_linear_3015_1162" x1="89.5254" y1="24.5458" x2="107.982" y2="7.83343" gradientUnits="userSpaceOnUse">
<stop stop-color="#D9262A"/>
<stop offset="0.33" stop-color="#F05924"/>
</linearGradient>
<linearGradient id="paint20_linear_3015_1162" x1="91.744" y1="17.9193" x2="97.8103" y2="17.9193" gradientUnits="userSpaceOnUse">
<stop stop-color="#CB2127"/>
<stop offset="0.65" stop-color="#EE4223"/>
</linearGradient>
<linearGradient id="paint21_linear_3015_1162" x1="96.1293" y1="5.21483" x2="95.7291" y2="15.8438" gradientUnits="userSpaceOnUse">
<stop offset="0.21" stop-color="#F05725"/>
<stop offset="0.78" stop-color="#F16724"/>
</linearGradient>
<linearGradient id="paint22_linear_3015_1162" x1="81.5036" y1="14.426" x2="90.6632" y2="14.426" gradientUnits="userSpaceOnUse">
<stop stop-color="#F37521"/>
<stop offset="1" stop-color="#EC2224"/>
</linearGradient>
<linearGradient id="paint23_linear_3015_1162" x1="80.4403" y1="11.2015" x2="89.0738" y2="11.2015" gradientUnits="userSpaceOnUse">
<stop stop-color="#EE4223"/>
<stop offset="0.75" stop-color="#EE4223"/>
</linearGradient>
<linearGradient id="paint24_linear_3015_1162" x1="80.646" y1="7.16477" x2="87.4328" y2="7.16477" gradientUnits="userSpaceOnUse">
<stop stop-color="#F37521"/>
<stop offset="1" stop-color="#EC2224"/>
</linearGradient>
<linearGradient id="paint25_linear_3015_1162" x1="83.4704" y1="19.5432" x2="94.1051" y2="19.5432" gradientUnits="userSpaceOnUse">
<stop stop-color="#EE4223"/>
<stop offset="1" stop-color="#EC2224"/>
</linearGradient>
<linearGradient id="paint26_linear_3015_1162" x1="83.6134" y1="21.7103" x2="93.3732" y2="21.7103" gradientUnits="userSpaceOnUse">
<stop stop-color="#F05F22"/>
<stop offset="1" stop-color="#EC2224"/>
</linearGradient>
<radialGradient id="paint27_radial_3015_1162" cx="0" cy="0" r="1" gradientUnits="userSpaceOnUse" gradientTransform="translate(57.4525 2.68509) scale(2.67238 2.67238)">
<stop offset="0.26" stop-color="#4362AD"/>
<stop offset="1" stop-color="#2140A4"/>
</radialGradient>
</defs>
</svg>
