<svg width="32" height="32" viewBox="0 0 32 32" fill="none" xmlns="http://www.w3.org/2000/svg">
<rect width="32" height="32" rx="16" fill="#0077B5"/>
<path fill-rule="evenodd" clip-rule="evenodd" d="M10.972 12.7671V25.3H6.91583V12.7671H10.972ZM11.2309 8.86995C11.2309 9.48995 11.0583 10.0214 10.6268 10.42C10.1953 10.8185 9.63432 11.04 8.94391 11.04C8.2535 11.04 7.69254 10.8185 7.30418 10.42C6.87268 10.0214 6.70007 9.48995 6.70007 8.86995C6.70007 8.24995 6.87268 7.71852 7.30418 7.31995C7.73569 6.92138 8.29665 6.69995 8.98706 6.69995C9.67747 6.69995 10.1953 6.92138 10.6268 7.31995C11.0151 7.71852 11.2309 8.24995 11.2309 8.86995ZM25.6001 18.0814V25.3H21.5439V18.5685C21.5439 17.6828 21.4145 17.0185 21.0693 16.4871C20.724 16 20.2062 15.7342 19.5158 15.7342C18.998 15.7342 18.5665 15.9114 18.2213 16.1771C17.8329 16.4871 17.574 16.8414 17.4014 17.2842C17.3151 17.5057 17.272 17.86 17.272 18.3028V25.3H13.2158C13.259 21.9342 13.259 19.1885 13.259 17.1071C13.259 15.0257 13.259 13.7414 13.259 13.3428L13.2158 12.7671H17.272V14.5828C17.4446 14.3171 17.574 14.0514 17.7466 13.8742C17.9193 13.6528 18.1782 13.4314 18.4802 13.21C18.7391 12.9885 19.1275 12.7671 19.5158 12.6342C19.9473 12.5014 20.422 12.4571 20.9398 12.4571C22.3638 12.4571 23.4857 12.9442 24.3487 13.8742C25.2117 14.8485 25.6001 16.2657 25.6001 18.0814Z" fill="white"/>
</svg>
